<?xml version="1.0" encoding="UTF-8"?>
<svg id="Ebene_1" xmlns="http://www.w3.org/2000/svg" version="1.1" viewBox="0 0 182 158">
  <!-- Generator: Adobe Illustrator 29.8.2, SVG Export Plug-In . SVG Version: 2.1.1 Build 3)  -->
  <defs>
    <style>
      .st0 {
        fill: #fff;
      }
    </style>
  </defs>
  <path class="st0" d="M12.54,20.26c10.06.37,150.83,0,150.83,0,0,0,8.19,2.61,8.19,11.55s-8.19,11.55-8.19,11.55H12.54s-8.19-1.49-8.19-11.55,8.19-11.55,8.19-11.55Z"/>
  <path class="st0" d="M12.54,114.85c10.06.37,150.83,0,150.83,0,0,0,8.19,2.61,8.19,11.55s-8.19,11.55-8.19,11.55H12.54s-8.19-1.49-8.19-11.55,8.19-11.55,8.19-11.55Z"/>
  <path class="st0" d="M12.54,67.56c10.06.37,150.83,0,150.83,0,0,0,8.19,2.61,8.19,11.55s-8.19,11.55-8.19,11.55H12.54s-8.19-1.49-8.19-11.55,8.19-11.55,8.19-11.55Z"/>
</svg>